<svg xmlns="http://www.w3.org/2000/svg" version="1.1" xmlns:xlink="http://www.w3.org/1999/xlink" xmlns:svgjs="http://svgjs.com/svgjs" width="1440" height="560" preserveAspectRatio="none" viewBox="0 0 1440 560"><g mask="url(&quot;#SvgjsMask1047&quot;)" fill="none"><path d="M-47.61 337.97L-47.61 337.97" stroke="rgba(255, 87, 51, 0.2)" stroke-width="1.5"></path><path d="M-47.61 337.97L-55.82 508.44" stroke="rgba(255, 87, 51, 0.2)" stroke-width="1.5"></path><path d="M-47.61 337.97L85.76 497.51" stroke="rgba(255, 87, 51, 0.2)" stroke-width="1.5"></path><path d="M-47.61 337.97L192.41 398.2" stroke="rgba(255, 87, 51, 0.2)" stroke-width="1.5"></path><path d="M-47.61 337.97L-80.66 666.95" stroke="rgba(255, 87, 51, 0.2)" stroke-width="1.5"></path><path d="M-47.61 337.97L248.71 534.58" stroke="rgba(255, 87, 51, 0.2)" stroke-width="1.5"></path><path d="M-55.82 508.44L-55.82 508.44" stroke="rgba(255, 87, 51, 0.2)" stroke-width="1.5"></path><path d="M-55.82 508.44L85.76 497.51" stroke="rgba(255, 87, 51, 0.2)" stroke-width="1.5"></path><path d="M-55.82 508.44L-80.66 666.95" stroke="rgba(255, 87, 51, 0.2)" stroke-width="1.5"></path><path d="M-55.82 508.44L192.41 398.2" stroke="rgba(255, 87, 51, 0.2)" stroke-width="1.5"></path><path d="M-55.82 508.44L248.71 534.58" stroke="rgba(255, 87, 51, 0.2)" stroke-width="1.5"></path><path d="M-80.66 666.95L-80.66 666.95" stroke="rgba(255, 87, 51, 0.2)" stroke-width="1.5"></path><path d="M-80.66 666.95L85.76 497.51" stroke="rgba(255, 87, 51, 0.2)" stroke-width="1.5"></path><path d="M-80.66 666.95L254.07 698.71" stroke="rgba(255, 87, 51, 0.2)" stroke-width="1.5"></path><path d="M-80.66 666.95L248.71 534.58" stroke="rgba(255, 87, 51, 0.2)" stroke-width="1.5"></path><path d="M85.76 497.51L85.76 497.51" stroke="rgba(255, 87, 51, 0.2)" stroke-width="1.5"></path><path d="M85.76 497.51L192.41 398.2" stroke="rgba(255, 87, 51, 0.2)" stroke-width="1.5"></path><path d="M192.41 398.2L192.41 398.2" stroke="rgba(255, 87, 51, 0.2)" stroke-width="1.5"></path><path d="M192.41 398.2L248.71 534.58" stroke="rgba(255, 87, 51, 0.2)" stroke-width="1.5"></path><path d="M192.41 398.2L405.45 384.19" stroke="rgba(255, 87, 51, 0.2)" stroke-width="1.5"></path><path d="M248.71 534.58L248.71 534.58" stroke="rgba(255, 87, 51, 0.2)" stroke-width="1.5"></path><path d="M248.71 534.58L399.47 540.77" stroke="rgba(255, 87, 51, 0.2)" stroke-width="1.5"></path><path d="M248.71 534.58L254.07 698.71" stroke="rgba(255, 87, 51, 0.2)" stroke-width="1.5"></path><path d="M254.07 698.71L254.07 698.71" stroke="rgba(255, 87, 51, 0.2)" stroke-width="1.5"></path><path d="M254.07 698.71L399.47 540.77" stroke="rgba(255, 87, 51, 0.2)" stroke-width="1.5"></path><path d="M405.45 384.19L405.45 384.19" stroke="rgba(255, 87, 51, 0.2)" stroke-width="1.5"></path><path d="M405.45 384.19L545.6 343.33" stroke="rgba(255, 87, 51, 0.2)" stroke-width="1.5"></path><path d="M405.45 384.19L399.47 540.77" stroke="rgba(255, 87, 51, 0.2)" stroke-width="1.5"></path><path d="M405.45 384.19L501.81 524.92" stroke="rgba(255, 87, 51, 0.2)" stroke-width="1.5"></path><path d="M405.45 384.19L248.71 534.58" stroke="rgba(255, 87, 51, 0.2)" stroke-width="1.5"></path><path d="M405.45 384.19L644.15 224.58" stroke="rgba(255, 87, 51, 0.2)" stroke-width="1.5"></path><path d="M399.47 540.77L399.47 540.77" stroke="rgba(255, 87, 51, 0.2)" stroke-width="1.5"></path><path d="M399.47 540.77L501.81 524.92" stroke="rgba(255, 87, 51, 0.2)" stroke-width="1.5"></path><path d="M545.6 343.33L545.6 343.33" stroke="rgba(255, 87, 51, 0.2)" stroke-width="1.5"></path><path d="M545.6 343.33L644.15 224.58" stroke="rgba(255, 87, 51, 0.2)" stroke-width="1.5"></path><path d="M545.6 343.33L709.9 401.26" stroke="rgba(255, 87, 51, 0.2)" stroke-width="1.5"></path><path d="M501.81 524.92L501.81 524.92" stroke="rgba(255, 87, 51, 0.2)" stroke-width="1.5"></path><path d="M501.81 524.92L556.15 697.45" stroke="rgba(255, 87, 51, 0.2)" stroke-width="1.5"></path><path d="M501.81 524.92L545.6 343.33" stroke="rgba(255, 87, 51, 0.2)" stroke-width="1.5"></path><path d="M501.81 524.92L654.55 654.2" stroke="rgba(255, 87, 51, 0.2)" stroke-width="1.5"></path><path d="M556.15 697.45L556.15 697.45" stroke="rgba(255, 87, 51, 0.2)" stroke-width="1.5"></path><path d="M556.15 697.45L654.55 654.2" stroke="rgba(255, 87, 51, 0.2)" stroke-width="1.5"></path><path d="M556.15 697.45L399.47 540.77" stroke="rgba(255, 87, 51, 0.2)" stroke-width="1.5"></path><path d="M556.15 697.45L813.28 665.79" stroke="rgba(255, 87, 51, 0.2)" stroke-width="1.5"></path><path d="M556.15 697.45L254.07 698.71" stroke="rgba(255, 87, 51, 0.2)" stroke-width="1.5"></path><path d="M556.15 697.45L709.9 401.26" stroke="rgba(255, 87, 51, 0.2)" stroke-width="1.5"></path><path d="M644.15 224.58L644.15 224.58" stroke="rgba(255, 87, 51, 0.2)" stroke-width="1.5"></path><path d="M644.15 224.58L795 202.84" stroke="rgba(255, 87, 51, 0.2)" stroke-width="1.5"></path><path d="M644.15 224.58L709.9 401.26" stroke="rgba(255, 87, 51, 0.2)" stroke-width="1.5"></path><path d="M644.15 224.58L838.96 337.71" stroke="rgba(255, 87, 51, 0.2)" stroke-width="1.5"></path><path d="M709.9 401.26L709.9 401.26" stroke="rgba(255, 87, 51, 0.2)" stroke-width="1.5"></path><path d="M709.9 401.26L838.96 337.71" stroke="rgba(255, 87, 51, 0.2)" stroke-width="1.5"></path><path d="M654.55 654.2L654.55 654.2" stroke="rgba(255, 87, 51, 0.2)" stroke-width="1.5"></path><path d="M795 202.84L795 202.84" stroke="rgba(255, 87, 51, 0.2)" stroke-width="1.5"></path><path d="M795 202.84L838.96 337.71" stroke="rgba(255, 87, 51, 0.2)" stroke-width="1.5"></path><path d="M795 202.84L964.16 231.88" stroke="rgba(255, 87, 51, 0.2)" stroke-width="1.5"></path><path d="M795 202.84L709.9 401.26" stroke="rgba(255, 87, 51, 0.2)" stroke-width="1.5"></path><path d="M795 202.84L993.9 72.88" stroke="rgba(255, 87, 51, 0.2)" stroke-width="1.5"></path><path d="M795 202.84L994.05 350.16" stroke="rgba(255, 87, 51, 0.2)" stroke-width="1.5"></path><path d="M838.96 337.71L838.96 337.71" stroke="rgba(255, 87, 51, 0.2)" stroke-width="1.5"></path><path d="M813.28 665.79L813.28 665.79" stroke="rgba(255, 87, 51, 0.2)" stroke-width="1.5"></path><path d="M813.28 665.79L654.55 654.2" stroke="rgba(255, 87, 51, 0.2)" stroke-width="1.5"></path><path d="M813.28 665.79L709.9 401.26" stroke="rgba(255, 87, 51, 0.2)" stroke-width="1.5"></path><path d="M938.02 -97.94L938.02 -97.94" stroke="rgba(255, 87, 51, 0.2)" stroke-width="1.5"></path><path d="M938.02 -97.94L1108.71 -84.45" stroke="rgba(255, 87, 51, 0.2)" stroke-width="1.5"></path><path d="M938.02 -97.94L993.9 72.88" stroke="rgba(255, 87, 51, 0.2)" stroke-width="1.5"></path><path d="M938.02 -97.94L964.16 231.88" stroke="rgba(255, 87, 51, 0.2)" stroke-width="1.5"></path><path d="M938.02 -97.94L795 202.84" stroke="rgba(255, 87, 51, 0.2)" stroke-width="1.5"></path><path d="M938.02 -97.94L1287.5 -55.86" stroke="rgba(255, 87, 51, 0.2)" stroke-width="1.5"></path><path d="M938.02 -97.94L1112.24 258.25" stroke="rgba(255, 87, 51, 0.2)" stroke-width="1.5"></path><path d="M993.9 72.88L993.9 72.88" stroke="rgba(255, 87, 51, 0.2)" stroke-width="1.5"></path><path d="M993.9 72.88L964.16 231.88" stroke="rgba(255, 87, 51, 0.2)" stroke-width="1.5"></path><path d="M993.9 72.88L1108.71 -84.45" stroke="rgba(255, 87, 51, 0.2)" stroke-width="1.5"></path><path d="M993.9 72.88L1112.24 258.25" stroke="rgba(255, 87, 51, 0.2)" stroke-width="1.5"></path><path d="M993.9 72.88L994.05 350.16" stroke="rgba(255, 87, 51, 0.2)" stroke-width="1.5"></path><path d="M964.16 231.88L964.16 231.88" stroke="rgba(255, 87, 51, 0.2)" stroke-width="1.5"></path><path d="M964.16 231.88L994.05 350.16" stroke="rgba(255, 87, 51, 0.2)" stroke-width="1.5"></path><path d="M964.16 231.88L1112.24 258.25" stroke="rgba(255, 87, 51, 0.2)" stroke-width="1.5"></path><path d="M994.05 350.16L994.05 350.16" stroke="rgba(255, 87, 51, 0.2)" stroke-width="1.5"></path><path d="M994.05 350.16L1139.86 352.45" stroke="rgba(255, 87, 51, 0.2)" stroke-width="1.5"></path><path d="M994.05 350.16L1112.24 258.25" stroke="rgba(255, 87, 51, 0.2)" stroke-width="1.5"></path><path d="M994.05 350.16L838.96 337.71" stroke="rgba(255, 87, 51, 0.2)" stroke-width="1.5"></path><path d="M994.05 350.16L1158.4 529.39" stroke="rgba(255, 87, 51, 0.2)" stroke-width="1.5"></path><path d="M1108.71 -84.45L1108.71 -84.45" stroke="rgba(255, 87, 51, 0.2)" stroke-width="1.5"></path><path d="M1108.71 -84.45L1287.5 -55.86" stroke="rgba(255, 87, 51, 0.2)" stroke-width="1.5"></path><path d="M1108.71 -84.45L1304.55 75.26" stroke="rgba(255, 87, 51, 0.2)" stroke-width="1.5"></path><path d="M1108.71 -84.45L1399.72 -107.72" stroke="rgba(255, 87, 51, 0.2)" stroke-width="1.5"></path><path d="M1112.24 258.25L1112.24 258.25" stroke="rgba(255, 87, 51, 0.2)" stroke-width="1.5"></path><path d="M1112.24 258.25L1139.86 352.45" stroke="rgba(255, 87, 51, 0.2)" stroke-width="1.5"></path><path d="M1139.86 352.45L1139.86 352.45" stroke="rgba(255, 87, 51, 0.2)" stroke-width="1.5"></path><path d="M1139.86 352.45L1250.07 391.08" stroke="rgba(255, 87, 51, 0.2)" stroke-width="1.5"></path><path d="M1139.86 352.45L1237.74 489.47" stroke="rgba(255, 87, 51, 0.2)" stroke-width="1.5"></path><path d="M1139.86 352.45L1158.4 529.39" stroke="rgba(255, 87, 51, 0.2)" stroke-width="1.5"></path><path d="M1139.86 352.45L1268.85 228.68" stroke="rgba(255, 87, 51, 0.2)" stroke-width="1.5"></path><path d="M1158.4 529.39L1158.4 529.39" stroke="rgba(255, 87, 51, 0.2)" stroke-width="1.5"></path><path d="M1158.4 529.39L1237.74 489.47" stroke="rgba(255, 87, 51, 0.2)" stroke-width="1.5"></path><path d="M1158.4 529.39L1250.07 391.08" stroke="rgba(255, 87, 51, 0.2)" stroke-width="1.5"></path><path d="M1158.4 529.39L1263.27 661.85" stroke="rgba(255, 87, 51, 0.2)" stroke-width="1.5"></path><path d="M1158.4 529.39L1136.87 707.01" stroke="rgba(255, 87, 51, 0.2)" stroke-width="1.5"></path><path d="M1158.4 529.39L1387.78 520.68" stroke="rgba(255, 87, 51, 0.2)" stroke-width="1.5"></path><path d="M1136.87 707.01L1136.87 707.01" stroke="rgba(255, 87, 51, 0.2)" stroke-width="1.5"></path><path d="M1136.87 707.01L1263.27 661.85" stroke="rgba(255, 87, 51, 0.2)" stroke-width="1.5"></path><path d="M1287.5 -55.86L1287.5 -55.86" stroke="rgba(255, 87, 51, 0.2)" stroke-width="1.5"></path><path d="M1287.5 -55.86L1399.72 -107.72" stroke="rgba(255, 87, 51, 0.2)" stroke-width="1.5"></path><path d="M1287.5 -55.86L1304.55 75.26" stroke="rgba(255, 87, 51, 0.2)" stroke-width="1.5"></path><path d="M1304.55 75.26L1304.55 75.26" stroke="rgba(255, 87, 51, 0.2)" stroke-width="1.5"></path><path d="M1304.55 75.26L1409.55 96.51" stroke="rgba(255, 87, 51, 0.2)" stroke-width="1.5"></path><path d="M1304.55 75.26L1268.85 228.68" stroke="rgba(255, 87, 51, 0.2)" stroke-width="1.5"></path><path d="M1304.55 75.26L1440.01 222.14" stroke="rgba(255, 87, 51, 0.2)" stroke-width="1.5"></path><path d="M1304.55 75.26L1399.72 -107.72" stroke="rgba(255, 87, 51, 0.2)" stroke-width="1.5"></path><path d="M1268.85 228.68L1268.85 228.68" stroke="rgba(255, 87, 51, 0.2)" stroke-width="1.5"></path><path d="M1268.85 228.68L1112.24 258.25" stroke="rgba(255, 87, 51, 0.2)" stroke-width="1.5"></path><path d="M1268.85 228.68L1250.07 391.08" stroke="rgba(255, 87, 51, 0.2)" stroke-width="1.5"></path><path d="M1268.85 228.68L1440.01 222.14" stroke="rgba(255, 87, 51, 0.2)" stroke-width="1.5"></path><path d="M1268.85 228.68L1409.55 96.51" stroke="rgba(255, 87, 51, 0.2)" stroke-width="1.5"></path><path d="M1250.07 391.08L1250.07 391.08" stroke="rgba(255, 87, 51, 0.2)" stroke-width="1.5"></path><path d="M1250.07 391.08L1237.74 489.47" stroke="rgba(255, 87, 51, 0.2)" stroke-width="1.5"></path><path d="M1250.07 391.08L1387.78 520.68" stroke="rgba(255, 87, 51, 0.2)" stroke-width="1.5"></path><path d="M1237.74 489.47L1237.74 489.47" stroke="rgba(255, 87, 51, 0.2)" stroke-width="1.5"></path><path d="M1237.74 489.47L1387.78 520.68" stroke="rgba(255, 87, 51, 0.2)" stroke-width="1.5"></path><path d="M1263.27 661.85L1263.27 661.85" stroke="rgba(255, 87, 51, 0.2)" stroke-width="1.5"></path><path d="M1399.72 -107.72L1399.72 -107.72" stroke="rgba(255, 87, 51, 0.2)" stroke-width="1.5"></path><path d="M1399.72 -107.72L1560.79 -54.54" stroke="rgba(255, 87, 51, 0.2)" stroke-width="1.5"></path><path d="M1399.72 -107.72L1409.55 96.51" stroke="rgba(255, 87, 51, 0.2)" stroke-width="1.5"></path><path d="M1399.72 -107.72L1611.79 83.53" stroke="rgba(255, 87, 51, 0.2)" stroke-width="1.5"></path><path d="M1409.55 96.51L1409.55 96.51" stroke="rgba(255, 87, 51, 0.2)" stroke-width="1.5"></path><path d="M1409.55 96.51L1440.01 222.14" stroke="rgba(255, 87, 51, 0.2)" stroke-width="1.5"></path><path d="M1409.55 96.51L1287.5 -55.86" stroke="rgba(255, 87, 51, 0.2)" stroke-width="1.5"></path><path d="M1409.55 96.51L1611.79 83.53" stroke="rgba(255, 87, 51, 0.2)" stroke-width="1.5"></path><path d="M1440.01 222.14L1440.01 222.14" stroke="rgba(255, 87, 51, 0.2)" stroke-width="1.5"></path><path d="M1440.01 222.14L1587.87 244.2" stroke="rgba(255, 87, 51, 0.2)" stroke-width="1.5"></path><path d="M1440.01 222.14L1449.77 407.49" stroke="rgba(255, 87, 51, 0.2)" stroke-width="1.5"></path><path d="M1449.77 407.49L1449.77 407.49" stroke="rgba(255, 87, 51, 0.2)" stroke-width="1.5"></path><path d="M1449.77 407.49L1387.78 520.68" stroke="rgba(255, 87, 51, 0.2)" stroke-width="1.5"></path><path d="M1449.77 407.49L1250.07 391.08" stroke="rgba(255, 87, 51, 0.2)" stroke-width="1.5"></path><path d="M1387.78 520.68L1387.78 520.68" stroke="rgba(255, 87, 51, 0.2)" stroke-width="1.5"></path><path d="M1387.78 520.68L1451.04 675.29" stroke="rgba(255, 87, 51, 0.2)" stroke-width="1.5"></path><path d="M1387.78 520.68L1263.27 661.85" stroke="rgba(255, 87, 51, 0.2)" stroke-width="1.5"></path><path d="M1387.78 520.68L1570.53 638.13" stroke="rgba(255, 87, 51, 0.2)" stroke-width="1.5"></path><path d="M1451.04 675.29L1451.04 675.29" stroke="rgba(255, 87, 51, 0.2)" stroke-width="1.5"></path><path d="M1451.04 675.29L1570.53 638.13" stroke="rgba(255, 87, 51, 0.2)" stroke-width="1.5"></path><path d="M1451.04 675.29L1263.27 661.85" stroke="rgba(255, 87, 51, 0.2)" stroke-width="1.5"></path><path d="M1560.79 -54.54L1560.79 -54.54" stroke="rgba(255, 87, 51, 0.2)" stroke-width="1.5"></path><path d="M1560.79 -54.54L1611.79 83.53" stroke="rgba(255, 87, 51, 0.2)" stroke-width="1.5"></path><path d="M1560.79 -54.54L1409.55 96.51" stroke="rgba(255, 87, 51, 0.2)" stroke-width="1.5"></path><path d="M1560.79 -54.54L1287.5 -55.86" stroke="rgba(255, 87, 51, 0.2)" stroke-width="1.5"></path><path d="M1611.79 83.53L1611.79 83.53" stroke="rgba(255, 87, 51, 0.2)" stroke-width="1.5"></path><path d="M1611.79 83.53L1587.87 244.2" stroke="rgba(255, 87, 51, 0.2)" stroke-width="1.5"></path><path d="M1587.87 244.2L1587.87 244.2" stroke="rgba(255, 87, 51, 0.2)" stroke-width="1.5"></path><path d="M1587.87 244.2L1449.77 407.49" stroke="rgba(255, 87, 51, 0.2)" stroke-width="1.5"></path><path d="M1587.87 244.2L1409.55 96.51" stroke="rgba(255, 87, 51, 0.2)" stroke-width="1.5"></path><path d="M1570.53 638.13L1570.53 638.13" stroke="rgba(255, 87, 51, 0.2)" stroke-width="1.5"></path><path d="M1570.53 638.13L1449.77 407.49" stroke="rgba(255, 87, 51, 0.2)" stroke-width="1.5"></path><path d="M1570.53 638.13L1263.27 661.85" stroke="rgba(255, 87, 51, 0.2)" stroke-width="1.5"></path><path d="M1570.53 638.13L1237.74 489.47" stroke="rgba(255, 87, 51, 0.2)" stroke-width="1.5"></path><path d="M1570.53 638.13L1587.87 244.2" stroke="rgba(255, 87, 51, 0.2)" stroke-width="1.5"></path><circle r="5" cx="-47.61" cy="337.97" fill="rgba(255, 87, 51, 0.2)"></circle><circle r="5" cx="-55.82" cy="508.44" fill="rgba(255, 87, 51, 0.2)"></circle><circle r="5" cx="-80.66" cy="666.95" fill="rgba(255, 87, 51, 0.2)"></circle><circle r="5" cx="85.76" cy="497.51" fill="rgba(255, 87, 51, 0.2)"></circle><circle r="5" cx="192.41" cy="398.2" fill="rgba(255, 87, 51, 0.2)"></circle><circle r="5" cx="248.71" cy="534.58" fill="rgba(255, 87, 51, 0.2)"></circle><circle r="5" cx="254.07" cy="698.71" fill="rgba(255, 87, 51, 0.2)"></circle><circle r="5" cx="405.45" cy="384.19" fill="rgba(255, 87, 51, 0.2)"></circle><circle r="5" cx="399.47" cy="540.77" fill="rgba(255, 87, 51, 0.2)"></circle><circle r="5" cx="545.6" cy="343.33" fill="rgba(255, 87, 51, 0.2)"></circle><circle r="5" cx="501.81" cy="524.92" fill="rgba(255, 87, 51, 0.2)"></circle><circle r="5" cx="556.15" cy="697.45" fill="rgba(255, 87, 51, 0.2)"></circle><circle r="5" cx="644.15" cy="224.58" fill="rgba(255, 87, 51, 0.2)"></circle><circle r="5" cx="709.9" cy="401.26" fill="rgba(255, 87, 51, 0.2)"></circle><circle r="5" cx="654.55" cy="654.2" fill="rgba(255, 87, 51, 0.2)"></circle><circle r="5" cx="795" cy="202.84" fill="rgba(255, 87, 51, 0.2)"></circle><circle r="5" cx="838.96" cy="337.71" fill="rgba(255, 87, 51, 0.2)"></circle><circle r="5" cx="813.28" cy="665.79" fill="rgba(255, 87, 51, 0.2)"></circle><circle r="5" cx="938.02" cy="-97.94" fill="rgba(255, 87, 51, 0.2)"></circle><circle r="5" cx="993.9" cy="72.88" fill="rgba(255, 87, 51, 0.2)"></circle><circle r="5" cx="964.16" cy="231.88" fill="rgba(255, 87, 51, 0.2)"></circle><circle r="5" cx="994.05" cy="350.16" fill="rgba(255, 87, 51, 0.2)"></circle><circle r="5" cx="1108.71" cy="-84.45" fill="rgba(255, 87, 51, 0.2)"></circle><circle r="5" cx="1112.24" cy="258.25" fill="rgba(255, 87, 51, 0.2)"></circle><circle r="5" cx="1139.86" cy="352.45" fill="rgba(255, 87, 51, 0.2)"></circle><circle r="5" cx="1158.4" cy="529.39" fill="rgba(255, 87, 51, 0.2)"></circle><circle r="5" cx="1136.87" cy="707.01" fill="rgba(255, 87, 51, 0.2)"></circle><circle r="5" cx="1287.5" cy="-55.86" fill="rgba(255, 87, 51, 0.2)"></circle><circle r="5" cx="1304.55" cy="75.26" fill="rgba(255, 87, 51, 0.2)"></circle><circle r="5" cx="1268.85" cy="228.68" fill="rgba(255, 87, 51, 0.2)"></circle><circle r="5" cx="1250.07" cy="391.08" fill="rgba(255, 87, 51, 0.2)"></circle><circle r="5" cx="1237.74" cy="489.47" fill="rgba(255, 87, 51, 0.2)"></circle><circle r="5" cx="1263.27" cy="661.85" fill="rgba(255, 87, 51, 0.2)"></circle><circle r="5" cx="1399.72" cy="-107.72" fill="rgba(255, 87, 51, 0.2)"></circle><circle r="5" cx="1409.55" cy="96.51" fill="rgba(255, 87, 51, 0.2)"></circle><circle r="5" cx="1440.01" cy="222.14" fill="rgba(255, 87, 51, 0.2)"></circle><circle r="5" cx="1449.77" cy="407.49" fill="rgba(255, 87, 51, 0.2)"></circle><circle r="5" cx="1387.78" cy="520.68" fill="rgba(255, 87, 51, 0.2)"></circle><circle r="5" cx="1451.04" cy="675.29" fill="rgba(255, 87, 51, 0.2)"></circle><circle r="5" cx="1560.79" cy="-54.54" fill="rgba(255, 87, 51, 0.2)"></circle><circle r="5" cx="1611.79" cy="83.53" fill="rgba(255, 87, 51, 0.2)"></circle><circle r="5" cx="1587.87" cy="244.2" fill="rgba(255, 87, 51, 0.2)"></circle><circle r="5" cx="1570.53" cy="638.13" fill="rgba(255, 87, 51, 0.2)"></circle><path d="M-107.92 643.6L-107.92 643.6" stroke="hsla(0, 0%, 54.5%, 0.2)" stroke-width="1.5"></path><path d="M-107.92 643.6L-43.46 490.53" stroke="hsla(0, 0%, 54.5%, 0.2)" stroke-width="1.5"></path><path d="M-107.92 643.6L72.96 682.85" stroke="hsla(0, 0%, 54.5%, 0.2)" stroke-width="1.5"></path><path d="M371.25 660.6L371.25 660.6" stroke="hsla(0, 0%, 54.5%, 0.2)" stroke-width="1.5"></path><path d="M371.25 660.6L516.26 654.85" stroke="hsla(0, 0%, 54.5%, 0.2)" stroke-width="1.5"></path><path d="M371.25 660.6L408.68 500.17" stroke="hsla(0, 0%, 54.5%, 0.2)" stroke-width="1.5"></path><path d="M371.25 660.6L255.57 536.11" stroke="hsla(0, 0%, 54.5%, 0.2)" stroke-width="1.5"></path><path d="M371.25 660.6L200.01 709.75" stroke="hsla(0, 0%, 54.5%, 0.2)" stroke-width="1.5"></path><path d="M371.25 660.6L493.84 512.76" stroke="hsla(0, 0%, 54.5%, 0.2)" stroke-width="1.5"></path><path d="M1462.15 69.2L1462.15 69.2" stroke="hsla(0, 0%, 54.5%, 0.2)" stroke-width="1.5"></path><path d="M1462.15 69.2L1417.79 -38.79" stroke="hsla(0, 0%, 54.5%, 0.2)" stroke-width="1.5"></path><path d="M1462.15 69.2L1601.95 44.2" stroke="hsla(0, 0%, 54.5%, 0.2)" stroke-width="1.5"></path><path d="M1462.15 69.2L1292.32 57.87" stroke="hsla(0, 0%, 54.5%, 0.2)" stroke-width="1.5"></path><path d="M1462.15 69.2L1589 194.11" stroke="hsla(0, 0%, 54.5%, 0.2)" stroke-width="1.5"></path><path d="M1441.92 251.5L1441.92 251.5" stroke="hsla(0, 0%, 54.5%, 0.2)" stroke-width="1.5"></path><path d="M1441.92 251.5L1400.88 349.02" stroke="hsla(0, 0%, 54.5%, 0.2)" stroke-width="1.5"></path><path d="M1441.92 251.5L1589 194.11" stroke="hsla(0, 0%, 54.5%, 0.2)" stroke-width="1.5"></path><path d="M1441.92 251.5L1572.67 360.05" stroke="hsla(0, 0%, 54.5%, 0.2)" stroke-width="1.5"></path><path d="M1557.04 499.97L1557.04 499.97" stroke="hsla(0, 0%, 54.5%, 0.2)" stroke-width="1.5"></path><path d="M1557.04 499.97L1572.67 360.05" stroke="hsla(0, 0%, 54.5%, 0.2)" stroke-width="1.5"></path><path d="M1557.04 499.97L1394.76 543" stroke="hsla(0, 0%, 54.5%, 0.2)" stroke-width="1.5"></path><path d="M1557.04 499.97L1588.62 677.76" stroke="hsla(0, 0%, 54.5%, 0.2)" stroke-width="1.5"></path><path d="M1557.04 499.97L1417.13 650.59" stroke="hsla(0, 0%, 54.5%, 0.2)" stroke-width="1.5"></path><path d="M1557.04 499.97L1400.88 349.02" stroke="hsla(0, 0%, 54.5%, 0.2)" stroke-width="1.5"></path><path d="M1557.04 499.97L1441.92 251.5" stroke="hsla(0, 0%, 54.5%, 0.2)" stroke-width="1.5"></path><path d="M-43.46 490.53L-43.46 490.53" stroke="hsla(0, 0%, 54.5%, 0.2)" stroke-width="1.5"></path><path d="M-43.46 490.53L48.19 511.52" stroke="hsla(0, 0%, 54.5%, 0.2)" stroke-width="1.5"></path><path d="M48.19 511.52L48.19 511.52" stroke="hsla(0, 0%, 54.5%, 0.2)" stroke-width="1.5"></path><path d="M48.19 511.52L72.96 682.85" stroke="hsla(0, 0%, 54.5%, 0.2)" stroke-width="1.5"></path><path d="M48.19 511.52L-107.92 643.6" stroke="hsla(0, 0%, 54.5%, 0.2)" stroke-width="1.5"></path><path d="M48.19 511.52L255.57 536.11" stroke="hsla(0, 0%, 54.5%, 0.2)" stroke-width="1.5"></path><path d="M72.96 682.85L72.96 682.85" stroke="hsla(0, 0%, 54.5%, 0.2)" stroke-width="1.5"></path><path d="M72.96 682.85L200.01 709.75" stroke="hsla(0, 0%, 54.5%, 0.2)" stroke-width="1.5"></path><path d="M72.96 682.85L-43.46 490.53" stroke="hsla(0, 0%, 54.5%, 0.2)" stroke-width="1.5"></path><path d="M72.96 682.85L255.57 536.11" stroke="hsla(0, 0%, 54.5%, 0.2)" stroke-width="1.5"></path><path d="M255.57 536.11L255.57 536.11" stroke="hsla(0, 0%, 54.5%, 0.2)" stroke-width="1.5"></path><path d="M255.57 536.11L408.68 500.17" stroke="hsla(0, 0%, 54.5%, 0.2)" stroke-width="1.5"></path><path d="M255.57 536.11L200.01 709.75" stroke="hsla(0, 0%, 54.5%, 0.2)" stroke-width="1.5"></path><path d="M255.57 536.11L493.84 512.76" stroke="hsla(0, 0%, 54.5%, 0.2)" stroke-width="1.5"></path><path d="M200.01 709.75L200.01 709.75" stroke="hsla(0, 0%, 54.5%, 0.2)" stroke-width="1.5"></path><path d="M408.68 500.17L408.68 500.17" stroke="hsla(0, 0%, 54.5%, 0.2)" stroke-width="1.5"></path><path d="M408.68 500.17L493.84 512.76" stroke="hsla(0, 0%, 54.5%, 0.2)" stroke-width="1.5"></path><path d="M493.84 512.76L493.84 512.76" stroke="hsla(0, 0%, 54.5%, 0.2)" stroke-width="1.5"></path><path d="M493.84 512.76L516.26 654.85" stroke="hsla(0, 0%, 54.5%, 0.2)" stroke-width="1.5"></path><path d="M493.84 512.76L652.34 489.57" stroke="hsla(0, 0%, 54.5%, 0.2)" stroke-width="1.5"></path><path d="M493.84 512.76L689.86 654.03" stroke="hsla(0, 0%, 54.5%, 0.2)" stroke-width="1.5"></path><path d="M516.26 654.85L516.26 654.85" stroke="hsla(0, 0%, 54.5%, 0.2)" stroke-width="1.5"></path><path d="M516.26 654.85L689.86 654.03" stroke="hsla(0, 0%, 54.5%, 0.2)" stroke-width="1.5"></path><path d="M516.26 654.85L408.68 500.17" stroke="hsla(0, 0%, 54.5%, 0.2)" stroke-width="1.5"></path><path d="M652.34 489.57L652.34 489.57" stroke="hsla(0, 0%, 54.5%, 0.2)" stroke-width="1.5"></path><path d="M652.34 489.57L808.16 548.81" stroke="hsla(0, 0%, 54.5%, 0.2)" stroke-width="1.5"></path><path d="M652.34 489.57L689.86 654.03" stroke="hsla(0, 0%, 54.5%, 0.2)" stroke-width="1.5"></path><path d="M652.34 489.57L516.26 654.85" stroke="hsla(0, 0%, 54.5%, 0.2)" stroke-width="1.5"></path><path d="M652.34 489.57L848.28 391.08" stroke="hsla(0, 0%, 54.5%, 0.2)" stroke-width="1.5"></path><path d="M652.34 489.57L408.68 500.17" stroke="hsla(0, 0%, 54.5%, 0.2)" stroke-width="1.5"></path><path d="M689.86 654.03L689.86 654.03" stroke="hsla(0, 0%, 54.5%, 0.2)" stroke-width="1.5"></path><path d="M689.86 654.03L823.32 706.36" stroke="hsla(0, 0%, 54.5%, 0.2)" stroke-width="1.5"></path><path d="M689.86 654.03L808.16 548.81" stroke="hsla(0, 0%, 54.5%, 0.2)" stroke-width="1.5"></path><path d="M848.28 391.08L848.28 391.08" stroke="hsla(0, 0%, 54.5%, 0.2)" stroke-width="1.5"></path><path d="M848.28 391.08L978.07 345.45" stroke="hsla(0, 0%, 54.5%, 0.2)" stroke-width="1.5"></path><path d="M848.28 391.08L808.16 548.81" stroke="hsla(0, 0%, 54.5%, 0.2)" stroke-width="1.5"></path><path d="M848.28 391.08L1002.6 501.55" stroke="hsla(0, 0%, 54.5%, 0.2)" stroke-width="1.5"></path><path d="M808.16 548.81L808.16 548.81" stroke="hsla(0, 0%, 54.5%, 0.2)" stroke-width="1.5"></path><path d="M808.16 548.81L823.32 706.36" stroke="hsla(0, 0%, 54.5%, 0.2)" stroke-width="1.5"></path><path d="M823.32 706.36L823.32 706.36" stroke="hsla(0, 0%, 54.5%, 0.2)" stroke-width="1.5"></path><path d="M823.32 706.36L938.3 676.94" stroke="hsla(0, 0%, 54.5%, 0.2)" stroke-width="1.5"></path><path d="M1008.95 235.28L1008.95 235.28" stroke="hsla(0, 0%, 54.5%, 0.2)" stroke-width="1.5"></path><path d="M1008.95 235.28L978.07 345.45" stroke="hsla(0, 0%, 54.5%, 0.2)" stroke-width="1.5"></path><path d="M1008.95 235.28L1156.29 211.32" stroke="hsla(0, 0%, 54.5%, 0.2)" stroke-width="1.5"></path><path d="M978.07 345.45L978.07 345.45" stroke="hsla(0, 0%, 54.5%, 0.2)" stroke-width="1.5"></path><path d="M1002.6 501.55L1002.6 501.55" stroke="hsla(0, 0%, 54.5%, 0.2)" stroke-width="1.5"></path><path d="M1002.6 501.55L1129.46 551.81" stroke="hsla(0, 0%, 54.5%, 0.2)" stroke-width="1.5"></path><path d="M1002.6 501.55L1097.51 385.93" stroke="hsla(0, 0%, 54.5%, 0.2)" stroke-width="1.5"></path><path d="M938.3 676.94L938.3 676.94" stroke="hsla(0, 0%, 54.5%, 0.2)" stroke-width="1.5"></path><path d="M938.3 676.94L1096.36 701.09" stroke="hsla(0, 0%, 54.5%, 0.2)" stroke-width="1.5"></path><path d="M938.3 676.94L808.16 548.81" stroke="hsla(0, 0%, 54.5%, 0.2)" stroke-width="1.5"></path><path d="M938.3 676.94L1002.6 501.55" stroke="hsla(0, 0%, 54.5%, 0.2)" stroke-width="1.5"></path><path d="M1156.29 211.32L1156.29 211.32" stroke="hsla(0, 0%, 54.5%, 0.2)" stroke-width="1.5"></path><path d="M1156.29 211.32L1247.49 195.86" stroke="hsla(0, 0%, 54.5%, 0.2)" stroke-width="1.5"></path><path d="M1156.29 211.32L1097.51 385.93" stroke="hsla(0, 0%, 54.5%, 0.2)" stroke-width="1.5"></path><path d="M1156.29 211.32L1292.32 57.87" stroke="hsla(0, 0%, 54.5%, 0.2)" stroke-width="1.5"></path><path d="M1156.29 211.32L1265.08 393.39" stroke="hsla(0, 0%, 54.5%, 0.2)" stroke-width="1.5"></path><path d="M1097.51 385.93L1097.51 385.93" stroke="hsla(0, 0%, 54.5%, 0.2)" stroke-width="1.5"></path><path d="M1097.51 385.93L978.07 345.45" stroke="hsla(0, 0%, 54.5%, 0.2)" stroke-width="1.5"></path><path d="M1097.51 385.93L1265.08 393.39" stroke="hsla(0, 0%, 54.5%, 0.2)" stroke-width="1.5"></path><path d="M1097.51 385.93L1129.46 551.81" stroke="hsla(0, 0%, 54.5%, 0.2)" stroke-width="1.5"></path><path d="M1129.46 551.81L1129.46 551.81" stroke="hsla(0, 0%, 54.5%, 0.2)" stroke-width="1.5"></path><path d="M1129.46 551.81L1238.4 492.38" stroke="hsla(0, 0%, 54.5%, 0.2)" stroke-width="1.5"></path><path d="M1129.46 551.81L1242.29 647.93" stroke="hsla(0, 0%, 54.5%, 0.2)" stroke-width="1.5"></path><path d="M1129.46 551.81L1096.36 701.09" stroke="hsla(0, 0%, 54.5%, 0.2)" stroke-width="1.5"></path><path d="M1096.36 701.09L1096.36 701.09" stroke="hsla(0, 0%, 54.5%, 0.2)" stroke-width="1.5"></path><path d="M1096.36 701.09L1242.29 647.93" stroke="hsla(0, 0%, 54.5%, 0.2)" stroke-width="1.5"></path><path d="M1289.3 -62.77L1289.3 -62.77" stroke="hsla(0, 0%, 54.5%, 0.2)" stroke-width="1.5"></path><path d="M1289.3 -62.77L1292.32 57.87" stroke="hsla(0, 0%, 54.5%, 0.2)" stroke-width="1.5"></path><path d="M1289.3 -62.77L1417.79 -38.79" stroke="hsla(0, 0%, 54.5%, 0.2)" stroke-width="1.5"></path><path d="M1289.3 -62.77L1462.15 69.2" stroke="hsla(0, 0%, 54.5%, 0.2)" stroke-width="1.5"></path><path d="M1289.3 -62.77L1247.49 195.86" stroke="hsla(0, 0%, 54.5%, 0.2)" stroke-width="1.5"></path><path d="M1289.3 -62.77L1585 -91.91" stroke="hsla(0, 0%, 54.5%, 0.2)" stroke-width="1.5"></path><path d="M1292.32 57.87L1292.32 57.87" stroke="hsla(0, 0%, 54.5%, 0.2)" stroke-width="1.5"></path><path d="M1292.32 57.87L1247.49 195.86" stroke="hsla(0, 0%, 54.5%, 0.2)" stroke-width="1.5"></path><path d="M1292.32 57.87L1417.79 -38.79" stroke="hsla(0, 0%, 54.5%, 0.2)" stroke-width="1.5"></path><path d="M1292.32 57.87L1441.92 251.5" stroke="hsla(0, 0%, 54.5%, 0.2)" stroke-width="1.5"></path><path d="M1247.49 195.86L1247.49 195.86" stroke="hsla(0, 0%, 54.5%, 0.2)" stroke-width="1.5"></path><path d="M1247.49 195.86L1265.08 393.39" stroke="hsla(0, 0%, 54.5%, 0.2)" stroke-width="1.5"></path><path d="M1247.49 195.86L1441.92 251.5" stroke="hsla(0, 0%, 54.5%, 0.2)" stroke-width="1.5"></path><path d="M1265.08 393.39L1265.08 393.39" stroke="hsla(0, 0%, 54.5%, 0.2)" stroke-width="1.5"></path><path d="M1265.08 393.39L1238.4 492.38" stroke="hsla(0, 0%, 54.5%, 0.2)" stroke-width="1.5"></path><path d="M1265.08 393.39L1400.88 349.02" stroke="hsla(0, 0%, 54.5%, 0.2)" stroke-width="1.5"></path><path d="M1265.08 393.39L1394.76 543" stroke="hsla(0, 0%, 54.5%, 0.2)" stroke-width="1.5"></path><path d="M1238.4 492.38L1238.4 492.38" stroke="hsla(0, 0%, 54.5%, 0.2)" stroke-width="1.5"></path><path d="M1238.4 492.38L1242.29 647.93" stroke="hsla(0, 0%, 54.5%, 0.2)" stroke-width="1.5"></path><path d="M1238.4 492.38L1394.76 543" stroke="hsla(0, 0%, 54.5%, 0.2)" stroke-width="1.5"></path><path d="M1242.29 647.93L1242.29 647.93" stroke="hsla(0, 0%, 54.5%, 0.2)" stroke-width="1.5"></path><path d="M1242.29 647.93L1417.13 650.59" stroke="hsla(0, 0%, 54.5%, 0.2)" stroke-width="1.5"></path><path d="M1417.79 -38.79L1417.79 -38.79" stroke="hsla(0, 0%, 54.5%, 0.2)" stroke-width="1.5"></path><path d="M1400.88 349.02L1400.88 349.02" stroke="hsla(0, 0%, 54.5%, 0.2)" stroke-width="1.5"></path><path d="M1400.88 349.02L1572.67 360.05" stroke="hsla(0, 0%, 54.5%, 0.2)" stroke-width="1.5"></path><path d="M1400.88 349.02L1394.76 543" stroke="hsla(0, 0%, 54.5%, 0.2)" stroke-width="1.5"></path><path d="M1400.88 349.02L1238.4 492.38" stroke="hsla(0, 0%, 54.5%, 0.2)" stroke-width="1.5"></path><path d="M1400.88 349.02L1247.49 195.86" stroke="hsla(0, 0%, 54.5%, 0.2)" stroke-width="1.5"></path><path d="M1394.76 543L1394.76 543" stroke="hsla(0, 0%, 54.5%, 0.2)" stroke-width="1.5"></path><path d="M1394.76 543L1417.13 650.59" stroke="hsla(0, 0%, 54.5%, 0.2)" stroke-width="1.5"></path><path d="M1394.76 543L1242.29 647.93" stroke="hsla(0, 0%, 54.5%, 0.2)" stroke-width="1.5"></path><path d="M1417.13 650.59L1417.13 650.59" stroke="hsla(0, 0%, 54.5%, 0.2)" stroke-width="1.5"></path><path d="M1417.13 650.59L1588.62 677.76" stroke="hsla(0, 0%, 54.5%, 0.2)" stroke-width="1.5"></path><path d="M1417.13 650.59L1238.4 492.38" stroke="hsla(0, 0%, 54.5%, 0.2)" stroke-width="1.5"></path><path d="M1585 -91.91L1585 -91.91" stroke="hsla(0, 0%, 54.5%, 0.2)" stroke-width="1.5"></path><path d="M1585 -91.91L1601.95 44.2" stroke="hsla(0, 0%, 54.5%, 0.2)" stroke-width="1.5"></path><path d="M1585 -91.91L1417.79 -38.79" stroke="hsla(0, 0%, 54.5%, 0.2)" stroke-width="1.5"></path><path d="M1585 -91.91L1462.15 69.2" stroke="hsla(0, 0%, 54.5%, 0.2)" stroke-width="1.5"></path><path d="M1585 -91.91L1589 194.11" stroke="hsla(0, 0%, 54.5%, 0.2)" stroke-width="1.5"></path><path d="M1601.95 44.2L1601.95 44.2" stroke="hsla(0, 0%, 54.5%, 0.2)" stroke-width="1.5"></path><path d="M1601.95 44.2L1589 194.11" stroke="hsla(0, 0%, 54.5%, 0.2)" stroke-width="1.5"></path><path d="M1589 194.11L1589 194.11" stroke="hsla(0, 0%, 54.5%, 0.2)" stroke-width="1.5"></path><path d="M1589 194.11L1572.67 360.05" stroke="hsla(0, 0%, 54.5%, 0.2)" stroke-width="1.5"></path><path d="M1572.67 360.05L1572.67 360.05" stroke="hsla(0, 0%, 54.5%, 0.2)" stroke-width="1.5"></path><path d="M1588.62 677.76L1588.62 677.76" stroke="hsla(0, 0%, 54.5%, 0.2)" stroke-width="1.5"></path><path d="M1588.62 677.76L1394.76 543" stroke="hsla(0, 0%, 54.5%, 0.2)" stroke-width="1.5"></path><path d="M1588.62 677.76L1572.67 360.05" stroke="hsla(0, 0%, 54.5%, 0.2)" stroke-width="1.5"></path><path d="M1588.62 677.76L1242.29 647.93" stroke="hsla(0, 0%, 54.5%, 0.2)" stroke-width="1.5"></path><path d="M1588.62 677.76L1400.88 349.02" stroke="hsla(0, 0%, 54.5%, 0.2)" stroke-width="1.5"></path><circle r="25" cx="-107.92" cy="643.6" fill="url(#SvgjsRadialGradient1048)"></circle><circle r="25" cx="371.25" cy="660.6" fill="url(#SvgjsRadialGradient1048)"></circle><circle r="25" cx="1462.15" cy="69.2" fill="url(#SvgjsRadialGradient1048)"></circle><circle r="25" cx="1441.92" cy="251.5" fill="url(#SvgjsRadialGradient1048)"></circle><circle r="25" cx="1557.04" cy="499.97" fill="url(#SvgjsRadialGradient1048)"></circle><circle r="5" cx="-43.46" cy="490.53" fill="rgba(240, 240, 240, 0.6)"></circle><circle r="5" cx="48.19" cy="511.52" fill="rgba(240, 240, 240, 0.6)"></circle><circle r="5" cx="72.96" cy="682.85" fill="rgba(240, 240, 240, 0.6)"></circle><circle r="5" cx="255.57" cy="536.11" fill="rgba(240, 240, 240, 0.6)"></circle><circle r="5" cx="200.01" cy="709.75" fill="rgba(240, 240, 240, 0.6)"></circle><circle r="5" cx="408.68" cy="500.17" fill="rgba(240, 240, 240, 0.6)"></circle><circle r="5" cx="493.84" cy="512.76" fill="rgba(240, 240, 240, 0.6)"></circle><circle r="5" cx="516.26" cy="654.85" fill="rgba(240, 240, 240, 0.6)"></circle><circle r="5" cx="652.34" cy="489.57" fill="rgba(240, 240, 240, 0.6)"></circle><circle r="5" cx="689.86" cy="654.03" fill="rgba(240, 240, 240, 0.6)"></circle><circle r="5" cx="848.28" cy="391.08" fill="rgba(240, 240, 240, 0.6)"></circle><circle r="5" cx="808.16" cy="548.81" fill="rgba(240, 240, 240, 0.6)"></circle><circle r="5" cx="823.32" cy="706.36" fill="rgba(240, 240, 240, 0.6)"></circle><circle r="5" cx="1008.95" cy="235.28" fill="rgba(240, 240, 240, 0.6)"></circle><circle r="5" cx="978.07" cy="345.45" fill="rgba(240, 240, 240, 0.6)"></circle><circle r="5" cx="1002.6" cy="501.55" fill="rgba(240, 240, 240, 0.6)"></circle><circle r="5" cx="938.3" cy="676.94" fill="rgba(240, 240, 240, 0.6)"></circle><circle r="5" cx="1156.29" cy="211.32" fill="rgba(240, 240, 240, 0.6)"></circle><circle r="5" cx="1097.51" cy="385.93" fill="rgba(240, 240, 240, 0.6)"></circle><circle r="5" cx="1129.46" cy="551.81" fill="rgba(240, 240, 240, 0.6)"></circle><circle r="5" cx="1096.36" cy="701.09" fill="rgba(240, 240, 240, 0.6)"></circle><circle r="5" cx="1289.3" cy="-62.77" fill="rgba(240, 240, 240, 0.6)"></circle><circle r="5" cx="1292.32" cy="57.87" fill="rgba(240, 240, 240, 0.6)"></circle><circle r="5" cx="1247.49" cy="195.86" fill="rgba(240, 240, 240, 0.6)"></circle><circle r="5" cx="1265.08" cy="393.39" fill="rgba(240, 240, 240, 0.6)"></circle><circle r="5" cx="1238.4" cy="492.38" fill="rgba(240, 240, 240, 0.6)"></circle><circle r="5" cx="1242.29" cy="647.93" fill="rgba(240, 240, 240, 0.6)"></circle><circle r="5" cx="1417.79" cy="-38.79" fill="rgba(240, 240, 240, 0.6)"></circle><circle r="5" cx="1400.88" cy="349.02" fill="rgba(240, 240, 240, 0.6)"></circle><circle r="5" cx="1394.76" cy="543" fill="rgba(240, 240, 240, 0.6)"></circle><circle r="5" cx="1417.13" cy="650.59" fill="rgba(240, 240, 240, 0.6)"></circle><circle r="5" cx="1585" cy="-91.91" fill="rgba(240, 240, 240, 0.6)"></circle><circle r="5" cx="1601.95" cy="44.2" fill="rgba(240, 240, 240, 0.6)"></circle><circle r="5" cx="1589" cy="194.11" fill="rgba(240, 240, 240, 0.6)"></circle><circle r="5" cx="1572.67" cy="360.05" fill="rgba(240, 240, 240, 0.6)"></circle><circle r="5" cx="1588.62" cy="677.76" fill="rgba(240, 240, 240, 0.6)"></circle></g><defs><mask id="SvgjsMask1047"><rect width="1440" height="560" fill="#ffffff"></rect></mask><radialGradient id="SvgjsRadialGradient1048"><stop stop-color="#ffffff" offset="0.1"></stop><stop stop-color="rgba(107, 107, 107, 0.2)" offset="0.2"></stop><stop stop-color="rgba(107, 107, 107, 0)" offset="1"></stop></radialGradient></defs></svg>